<svg xmlns="http://www.w3.org/2000/svg" xmlns:xlink="http://www.w3.org/1999/xlink" width="76" zoomAndPan="magnify" viewBox="0 0 56.879997 65.04" height="76" preserveAspectRatio="xMidYMid meet" version="1.2"><defs><clipPath id="71c732c99c"><path d="M 0.355469 0 L 56.40625 0 L 56.40625 56.171875 L 0.355469 56.171875 Z M 0.355469 0 "/></clipPath><clipPath id="68bc94b879"><path d="M 18 16.761719 L 39 16.761719 L 39 38.933594 L 18 38.933594 Z M 18 16.761719 "/></clipPath></defs><g id="56ff79abe1"><g clip-rule="nonzero" clip-path="url(#71c732c99c)"><path style=" stroke:none;fill-rule:nonzero;fill:#ffffff;fill-opacity:1;" d="M 0.355469 0 L 56.527344 0 L 56.527344 56.171875 L 0.355469 56.171875 Z M 0.355469 0 "/><path style=" stroke:none;fill-rule:nonzero;fill:#ffffff;fill-opacity:1;" d="M 0.355469 0 L 56.527344 0 L 56.527344 56.171875 L 0.355469 56.171875 Z M 0.355469 0 "/></g><g clip-rule="nonzero" clip-path="url(#68bc94b879)"><path style=" stroke:none;fill-rule:nonzero;fill:#0a4732;fill-opacity:1;" d="M 36 22.097656 C 34.300781 20.25 31.996094 19.113281 29.503906 18.894531 L 29.476562 19.214844 C 34.523438 19.660156 38.328125 23.820312 38.328125 28.894531 C 38.328125 34.207031 34.046875 38.535156 28.75 38.609375 L 28.75 32.300781 L 28.429688 32.300781 L 28.429688 38.609375 C 23.15625 38.511719 18.894531 34.191406 18.894531 28.894531 C 18.894531 28.78125 18.894531 28.664062 18.898438 28.550781 C 18.949219 28.554688 19.007812 28.558594 19.078125 28.558594 C 19.445312 28.558594 20.058594 28.496094 20.828125 28.191406 C 21.96875 27.738281 23.695312 26.632812 25.441406 23.941406 C 28.777344 18.792969 28.257812 16.953125 28.234375 16.878906 L 28.195312 16.761719 L 28.074219 16.765625 C 28.015625 16.765625 26.621094 16.820312 24.871094 17.316406 C 23.246094 17.78125 21.015625 18.730469 19.589844 20.632812 C 18.101562 22.617188 17.757812 25.234375 18.570312 28.414062 L 18.582031 28.453125 C 18.574219 28.597656 18.570312 28.746094 18.570312 28.894531 C 18.570312 34.429688 23.074219 38.933594 28.609375 38.933594 C 34.148438 38.933594 38.648438 34.429688 38.648438 28.894531 C 38.648438 26.367188 37.710938 23.957031 36 22.097656 Z M 19.84375 20.828125 C 22.238281 17.632812 27.058594 17.15625 27.945312 17.09375 C 27.988281 17.574219 27.933594 19.503906 25.171875 23.765625 C 23.484375 26.371094 21.824219 27.441406 20.734375 27.882812 C 19.863281 28.230469 19.203125 28.246094 18.917969 28.230469 C 19.078125 25.800781 20.125 23.5625 21.902344 21.863281 L 21.683594 21.628906 C 20.039062 23.199219 19 25.214844 18.679688 27.417969 C 18.171875 24.753906 18.5625 22.539062 19.84375 20.828125 Z M 19.84375 20.828125 "/></g><path style=" stroke:none;fill-rule:nonzero;fill:#0a4732;fill-opacity:1;" d="M 29.511719 29.773438 C 28.851562 30.359375 28.890625 31.253906 28.890625 31.292969 L 28.898438 31.40625 L 29.007812 31.4375 C 29.257812 31.507812 29.496094 31.546875 29.722656 31.546875 C 30.074219 31.546875 30.402344 31.457031 30.691406 31.285156 C 31.589844 30.753906 31.855469 29.605469 31.867188 29.558594 L 31.90625 29.394531 L 31.738281 29.363281 C 30.761719 29.191406 30.011719 29.332031 29.511719 29.773438 Z M 30.527344 31.011719 C 30.15625 31.230469 29.714844 31.28125 29.214844 31.160156 C 29.230469 30.925781 29.308594 30.378906 29.730469 30.011719 C 30.121094 29.664062 30.71875 29.542969 31.507812 29.652344 C 31.402344 29.96875 31.117188 30.660156 30.527344 31.011719 Z M 30.527344 31.011719 "/><path style=" stroke:none;fill-rule:nonzero;fill:#0a4732;fill-opacity:1;" d="M 27.585938 28.066406 C 27.71875 28.941406 28.492188 29.394531 28.527344 29.410156 L 28.625 29.46875 L 28.710938 29.394531 C 29.210938 28.957031 29.476562 28.453125 29.5 27.894531 C 29.539062 26.851562 28.71875 26.007812 28.6875 25.972656 L 28.566406 25.851562 L 28.453125 25.976562 C 27.777344 26.703125 27.488281 27.40625 27.585938 28.066406 Z M 28.570312 26.328125 C 28.777344 26.585938 29.203125 27.199219 29.175781 27.886719 C 29.160156 28.316406 28.960938 28.714844 28.589844 29.070312 C 28.402344 28.929688 27.988281 28.574219 27.90625 28.019531 C 27.824219 27.5 28.046875 26.929688 28.570312 26.328125 Z M 28.570312 26.328125 "/><path style=" stroke:none;fill-rule:nonzero;fill:#0a4732;fill-opacity:1;" d="M 28.285156 31.40625 L 28.289062 31.292969 C 28.292969 31.253906 28.332031 30.359375 27.667969 29.773438 C 27.171875 29.332031 26.421875 29.191406 25.441406 29.363281 L 25.277344 29.394531 L 25.3125 29.558594 C 25.324219 29.605469 25.589844 30.753906 26.488281 31.285156 C 26.78125 31.457031 27.105469 31.546875 27.457031 31.546875 C 27.6875 31.546875 27.925781 31.511719 28.175781 31.4375 Z M 26.65625 31.011719 C 26.0625 30.660156 25.78125 29.96875 25.675781 29.652344 C 26.464844 29.542969 27.0625 29.664062 27.453125 30.011719 C 27.875 30.378906 27.953125 30.925781 27.96875 31.160156 C 27.46875 31.28125 27.027344 31.230469 26.65625 31.011719 Z M 26.65625 31.011719 "/><path style=" stroke:none;fill-rule:nonzero;fill:#0a4732;fill-opacity:1;" d="M 25.191406 32.148438 L 26.257812 33.492188 C 26.703125 34.058594 26.976562 34.800781 27.242188 35.523438 C 27.339844 35.785156 27.4375 36.058594 27.542969 36.3125 L 27.839844 36.191406 C 27.738281 35.941406 27.644531 35.683594 27.542969 35.414062 C 27.269531 34.667969 26.988281 33.898438 26.507812 33.292969 L 25.445312 31.949219 C 25.09375 31.503906 24.457031 31.417969 24 31.742188 L 22.96875 28.773438 C 22.851562 28.433594 22.496094 28.242188 22.148438 28.324219 C 21.785156 28.410156 21.554688 28.765625 21.625 29.132812 C 21.625 29.132812 22.03125 31.25 22.035156 31.265625 C 22.25 32.371094 22.636719 33.375 23.1875 34.25 C 23.476562 34.707031 23.8125 35.140625 24.195312 35.539062 C 24.367188 35.71875 24.667969 36.195312 24.878906 36.5625 L 25.160156 36.40625 C 24.933594 36.007812 24.617188 35.519531 24.425781 35.316406 C 24.058594 34.933594 23.734375 34.519531 23.460938 34.078125 C 22.929688 33.238281 22.554688 32.269531 22.351562 31.207031 C 22.351562 31.207031 22.351562 31.207031 21.9375 29.074219 C 21.902344 28.875 22.027344 28.683594 22.222656 28.640625 C 22.410156 28.59375 22.601562 28.699219 22.664062 28.882812 L 23.871094 32.253906 L 25.4375 34.234375 L 25.691406 34.035156 L 24.121094 32.054688 L 24.15625 32.027344 C 24.476562 31.773438 24.941406 31.828125 25.191406 32.148438 Z M 25.191406 32.148438 "/><path style=" stroke:none;fill-rule:nonzero;fill:#0a4732;fill-opacity:1;" d="M 35.074219 28.328125 C 34.726562 28.242188 34.371094 28.4375 34.253906 28.777344 L 33.222656 31.742188 C 33.007812 31.589844 32.75 31.523438 32.484375 31.554688 C 32.203125 31.585938 31.953125 31.726562 31.777344 31.949219 L 30.714844 33.292969 C 30.234375 33.898438 29.953125 34.667969 29.679688 35.414062 C 29.578125 35.6875 29.484375 35.941406 29.382812 36.191406 L 29.679688 36.3125 C 29.785156 36.058594 29.882812 35.789062 29.980469 35.523438 C 30.246094 34.804688 30.519531 34.058594 30.964844 33.492188 L 32.03125 32.148438 C 32.152344 31.992188 32.328125 31.894531 32.523438 31.875 C 32.71875 31.851562 32.910156 31.90625 33.066406 32.027344 L 33.101562 32.054688 L 31.53125 34.035156 L 31.785156 34.234375 L 33.351562 32.253906 L 34.558594 28.882812 C 34.621094 28.699219 34.8125 28.59375 35 28.636719 C 35.195312 28.683594 35.320312 28.875 35.285156 29.070312 C 35.285156 29.070312 34.894531 31.097656 34.871094 31.199219 L 34.871094 31.203125 C 34.667969 32.269531 34.292969 33.238281 33.761719 34.078125 C 33.488281 34.519531 33.164062 34.933594 32.796875 35.316406 C 32.605469 35.515625 32.289062 36.007812 32.0625 36.40625 L 32.34375 36.5625 C 32.554688 36.195312 32.855469 35.71875 33.027344 35.539062 C 33.410156 35.140625 33.75 34.707031 34.035156 34.25 C 34.585938 33.375 34.972656 32.371094 35.1875 31.265625 C 35.195312 31.222656 35.246094 30.957031 35.601562 29.128906 C 35.667969 28.765625 35.4375 28.414062 35.074219 28.328125 Z M 35.074219 28.328125 "/></g></svg>