<svg xmlns="http://www.w3.org/2000/svg" xmlns:xlink="http://www.w3.org/1999/xlink" width="76" zoomAndPan="magnify" viewBox="0 0 56.879997 65.04" height="76" preserveAspectRatio="xMidYMid meet" version="1.2"><defs><clipPath id="3d59dc6122"><path d="M 0.355469 0 L 56.40625 0 L 56.40625 56.171875 L 0.355469 56.171875 Z M 0.355469 0 "/></clipPath><clipPath id="8772f53a67"><path d="M 17.113281 17.332031 L 39.289062 17.332031 L 39.289062 38.765625 L 17.113281 38.765625 Z M 17.113281 17.332031 "/></clipPath></defs><g id="4de7a9412d"><g clip-rule="nonzero" clip-path="url(#3d59dc6122)"><path style=" stroke:none;fill-rule:nonzero;fill:#ffffff;fill-opacity:1;" d="M 0.355469 0 L 56.527344 0 L 56.527344 56.171875 L 0.355469 56.171875 Z M 0.355469 0 "/><path style=" stroke:none;fill-rule:nonzero;fill:#ffffff;fill-opacity:1;" d="M 0.355469 0 L 56.527344 0 L 56.527344 56.171875 L 0.355469 56.171875 Z M 0.355469 0 "/></g><g clip-rule="nonzero" clip-path="url(#8772f53a67)"><path style=" stroke:none;fill-rule:nonzero;fill:#0a4732;fill-opacity:1;" d="M 30.027344 17.800781 C 30.191406 17.800781 30.398438 17.867188 30.589844 18.019531 C 30.84375 18.21875 31.046875 18.550781 31.28125 18.933594 L 31.277344 18.933594 L 32.925781 21.789062 C 32.964844 21.851562 33.023438 21.890625 33.089844 21.902344 L 33.085938 21.902344 C 33.101562 21.90625 33.117188 21.90625 33.128906 21.90625 C 33.167969 21.90625 33.210938 21.898438 33.246094 21.875 L 34.199219 21.328125 L 33.1875 25.097656 L 29.417969 24.085938 L 30.367188 23.539062 C 30.480469 23.472656 30.519531 23.332031 30.453125 23.21875 L 28.542969 19.847656 L 28.542969 19.851562 L 29.390625 18.316406 C 29.394531 18.316406 29.394531 18.3125 29.394531 18.3125 C 29.585938 18.042969 29.714844 17.871094 29.890625 17.820312 C 29.929688 17.804688 29.976562 17.800781 30.027344 17.800781 Z M 30.027344 17.332031 C 29.949219 17.332031 29.871094 17.339844 29.792969 17.359375 C 29.789062 17.359375 29.785156 17.359375 29.785156 17.359375 C 29.773438 17.359375 29.765625 17.359375 29.757812 17.363281 L 29.738281 17.363281 C 28.511719 17.5 27.277344 17.636719 26.414062 17.773438 C 25.546875 17.910156 25 18.058594 24.519531 18.5 C 24.058594 18.917969 23.667969 19.601562 23.300781 20.230469 C 23.300781 20.234375 23.300781 20.238281 23.296875 20.238281 L 20.894531 24.734375 C 20.832031 24.847656 20.875 24.988281 20.992188 25.050781 C 21.027344 25.066406 21.0625 25.078125 21.101562 25.078125 C 21.183594 25.078125 21.265625 25.03125 21.308594 24.953125 L 23.710938 20.460938 C 24.085938 19.808594 24.4375 19.203125 24.832031 18.84375 C 25.207031 18.503906 25.628906 18.371094 26.484375 18.234375 C 27.179688 18.125 28.121094 18.015625 29.109375 17.902344 L 29.113281 17.902344 C 29.078125 17.949219 29.046875 17.996094 29.015625 18.039062 C 29.003906 18.050781 28.996094 18.066406 28.988281 18.082031 L 24.289062 26.546875 C 24.226562 26.660156 24.265625 26.800781 24.378906 26.863281 C 24.414062 26.882812 24.453125 26.894531 24.492188 26.894531 C 24.574219 26.894531 24.65625 26.851562 24.699219 26.773438 L 28.273438 20.328125 L 29.933594 23.25 L 28.695312 23.964844 C 28.613281 24.011719 28.566406 24.105469 28.578125 24.199219 C 28.59375 24.292969 28.660156 24.367188 28.75 24.390625 L 33.292969 25.609375 C 33.3125 25.613281 33.332031 25.617188 33.351562 25.617188 C 33.457031 25.617188 33.550781 25.546875 33.578125 25.445312 L 34.796875 20.902344 C 34.820312 20.8125 34.785156 20.714844 34.710938 20.65625 C 34.671875 20.625 34.621094 20.609375 34.570312 20.609375 C 34.53125 20.609375 34.488281 20.617188 34.453125 20.640625 L 33.214844 21.355469 L 31.671875 18.675781 C 31.667969 18.671875 31.664062 18.667969 31.664062 18.664062 L 31.660156 18.664062 C 31.445312 18.308594 31.203125 17.910156 30.882812 17.652344 C 30.628906 17.453125 30.320312 17.332031 30.027344 17.332031 Z M 22.472656 26.375 L 23.484375 30.148438 L 22.535156 29.597656 C 22.496094 29.578125 22.457031 29.566406 22.417969 29.566406 C 22.335938 29.566406 22.257812 29.609375 22.214844 29.679688 L 20.253906 33.023438 L 18.5 33.054688 C 18.496094 33.054688 18.496094 33.054688 18.492188 33.054688 C 18.164062 33.023438 17.953125 32.996094 17.820312 32.871094 C 17.6875 32.75 17.59375 32.480469 17.640625 32.164062 C 17.6875 31.847656 17.871094 31.507812 18.089844 31.117188 L 19.742188 28.253906 C 19.804688 28.144531 19.765625 28 19.65625 27.933594 L 18.703125 27.386719 Z M 22.640625 25.855469 C 22.621094 25.855469 22.597656 25.859375 22.578125 25.863281 L 18.039062 27.082031 C 17.945312 27.105469 17.878906 27.183594 17.867188 27.277344 C 17.855469 27.371094 17.898438 27.460938 17.980469 27.507812 L 19.21875 28.222656 L 17.671875 30.898438 C 17.671875 30.90625 17.667969 30.910156 17.664062 30.917969 C 17.464844 31.28125 17.238281 31.691406 17.179688 32.09375 C 17.121094 32.5 17.21875 32.925781 17.472656 33.183594 C 17.476562 33.195312 17.484375 33.203125 17.488281 33.214844 L 17.492188 33.214844 L 17.5 33.230469 C 18.230469 34.226562 18.96875 35.226562 19.519531 35.90625 C 20.070312 36.585938 20.472656 36.984375 21.09375 37.183594 C 21.6875 37.371094 22.472656 37.371094 23.203125 37.371094 C 23.207031 37.371094 23.207031 37.371094 23.210938 37.371094 L 28.304688 37.203125 C 28.433594 37.199219 28.535156 37.089844 28.53125 36.960938 C 28.527344 36.835938 28.421875 36.738281 28.296875 36.738281 C 28.296875 36.738281 28.292969 36.738281 28.289062 36.738281 L 23.199219 36.902344 C 22.445312 36.902344 21.746094 36.898438 21.234375 36.738281 C 20.753906 36.585938 20.429688 36.285156 19.882812 35.609375 C 19.441406 35.066406 18.875 34.308594 18.28125 33.503906 C 18.339844 33.507812 18.394531 33.511719 18.445312 33.519531 C 18.457031 33.519531 18.472656 33.519531 18.484375 33.519531 C 18.488281 33.519531 18.488281 33.519531 18.492188 33.519531 L 28.179688 33.359375 C 28.308594 33.355469 28.410156 33.25 28.410156 33.121094 C 28.40625 32.992188 28.300781 32.890625 28.175781 32.890625 C 28.171875 32.890625 28.171875 32.890625 28.171875 32.890625 L 20.800781 33.015625 L 22.5 30.117188 L 23.738281 30.832031 C 23.777344 30.855469 23.816406 30.863281 23.855469 30.863281 C 23.90625 30.863281 23.957031 30.847656 24 30.816406 C 24.074219 30.757812 24.105469 30.660156 24.082031 30.570312 L 22.867188 26.03125 C 22.835938 25.925781 22.742188 25.855469 22.640625 25.855469 Z M 31.847656 32.039062 L 31.847656 33.136719 C 31.847656 33.265625 31.953125 33.367188 32.078125 33.371094 L 35.957031 33.398438 L 36.859375 34.90625 C 37 35.207031 37.082031 35.402344 37.039062 35.582031 C 37 35.757812 36.8125 35.972656 36.515625 36.089844 C 36.21875 36.207031 35.828125 36.21875 35.382812 36.226562 L 32.085938 36.226562 C 32.085938 36.226562 32.082031 36.226562 32.082031 36.226562 C 31.953125 36.226562 31.847656 36.332031 31.847656 36.460938 L 31.847656 37.558594 L 29.085938 34.796875 Z M 35.351562 24.222656 C 35.308594 24.222656 35.265625 24.234375 35.226562 24.257812 C 35.117188 24.328125 35.085938 24.472656 35.152344 24.582031 L 37.84375 28.910156 C 38.21875 29.5625 38.566406 30.167969 38.679688 30.691406 C 38.789062 31.183594 38.691406 31.617188 38.382812 32.425781 C 38.128906 33.082031 37.753906 33.949219 37.355469 34.867188 C 37.332031 34.8125 37.308594 34.765625 37.289062 34.71875 C 37.28125 34.707031 37.277344 34.691406 37.269531 34.679688 L 32.28125 26.367188 C 32.238281 26.292969 32.160156 26.253906 32.082031 26.253906 C 32.039062 26.253906 32 26.265625 31.960938 26.285156 C 31.851562 26.351562 31.816406 26.496094 31.882812 26.609375 L 35.671875 32.929688 L 32.316406 32.902344 L 32.316406 31.472656 C 32.316406 31.378906 32.257812 31.292969 32.171875 31.257812 C 32.140625 31.246094 32.113281 31.238281 32.082031 31.238281 C 32.019531 31.238281 31.960938 31.265625 31.917969 31.308594 L 28.589844 34.632812 C 28.5 34.722656 28.5 34.871094 28.589844 34.964844 L 31.917969 38.289062 C 31.960938 38.332031 32.019531 38.355469 32.082031 38.355469 C 32.113281 38.355469 32.140625 38.351562 32.171875 38.339844 C 32.257812 38.300781 32.316406 38.21875 32.316406 38.121094 L 32.316406 36.695312 L 35.378906 36.695312 C 35.382812 36.695312 35.382812 36.695312 35.382812 36.695312 L 35.40625 36.695312 C 35.414062 36.695312 35.417969 36.695312 35.425781 36.695312 C 35.839844 36.683594 36.304688 36.675781 36.6875 36.523438 C 37.070312 36.375 37.386719 36.078125 37.484375 35.726562 C 37.492188 35.71875 37.496094 35.707031 37.5 35.695312 L 37.503906 35.695312 L 37.507812 35.679688 C 38.003906 34.546875 38.503906 33.410156 38.816406 32.59375 C 39.128906 31.773438 39.277344 31.226562 39.136719 30.589844 C 39.003906 29.980469 38.609375 29.300781 38.242188 28.667969 C 38.242188 28.667969 38.242188 28.664062 38.238281 28.664062 L 35.550781 24.335938 C 35.503906 24.261719 35.429688 24.222656 35.351562 24.222656 Z M 35.351562 24.222656 "/></g></g></svg>