<svg xmlns="http://www.w3.org/2000/svg" xmlns:xlink="http://www.w3.org/1999/xlink" width="76" zoomAndPan="magnify" viewBox="0 0 56.879997 65.04" height="76" preserveAspectRatio="xMidYMid meet" version="1.2"><defs><clipPath id="515302dec2"><path d="M 0.355469 0 L 56.40625 0 L 56.40625 56.171875 L 0.355469 56.171875 Z M 0.355469 0 "/></clipPath><clipPath id="85533390e8"><path d="M 14.128906 18.824219 L 42.214844 18.824219 L 42.214844 36.894531 L 14.128906 36.894531 Z M 14.128906 18.824219 "/></clipPath></defs><g id="41057dd23e"><g clip-rule="nonzero" clip-path="url(#515302dec2)"><path style=" stroke:none;fill-rule:nonzero;fill:#ffffff;fill-opacity:1;" d="M 0.355469 0 L 56.527344 0 L 56.527344 56.171875 L 0.355469 56.171875 Z M 0.355469 0 "/><path style=" stroke:none;fill-rule:nonzero;fill:#ffffff;fill-opacity:1;" d="M 0.355469 0 L 56.527344 0 L 56.527344 56.171875 L 0.355469 56.171875 Z M 0.355469 0 "/></g><path style=" stroke:none;fill-rule:nonzero;fill:#0a4732;fill-opacity:1;" d="M 22.441406 23.710938 C 22.425781 23.75 22.445312 23.789062 22.484375 23.804688 C 22.859375 23.941406 23.207031 24.140625 23.511719 24.398438 C 23.523438 24.410156 23.542969 24.417969 23.558594 24.417969 C 23.578125 24.417969 23.597656 24.40625 23.613281 24.390625 C 23.640625 24.359375 23.636719 24.316406 23.605469 24.289062 C 23.285156 24.019531 22.925781 23.8125 22.53125 23.667969 C 22.496094 23.65625 22.453125 23.675781 22.441406 23.710938 "/><path style=" stroke:none;fill-rule:nonzero;fill:#0a4732;fill-opacity:1;" d="M 23.558594 23.949219 C 23.570312 23.960938 23.585938 23.964844 23.605469 23.964844 C 23.625 23.964844 23.644531 23.957031 23.660156 23.941406 C 23.683594 23.910156 23.679688 23.863281 23.652344 23.839844 C 23.363281 23.59375 22.996094 23.441406 22.621094 23.410156 C 22.582031 23.410156 22.546875 23.4375 22.542969 23.476562 C 22.539062 23.519531 22.570312 23.550781 22.609375 23.554688 C 22.957031 23.582031 23.292969 23.722656 23.558594 23.949219 "/><g clip-rule="nonzero" clip-path="url(#85533390e8)"><path style=" stroke:none;fill-rule:nonzero;fill:#0a4732;fill-opacity:1;" d="M 28.773438 20.78125 C 28.71875 20.839844 28.628906 20.875 28.503906 20.894531 L 28.484375 20.898438 C 28.25 20.929688 28.050781 20.960938 27.820312 20.9375 C 27.710938 20.929688 27.601562 20.914062 27.492188 20.894531 C 27.484375 20.804688 27.492188 20.683594 27.578125 20.617188 C 27.65625 20.558594 27.769531 20.566406 27.882812 20.570312 C 28.199219 20.582031 28.515625 20.574219 28.832031 20.546875 C 28.835938 20.5625 28.839844 20.574219 28.839844 20.589844 C 28.84375 20.65625 28.820312 20.730469 28.773438 20.78125 Z M 30.257812 22.03125 C 30.261719 22.03125 30.269531 22.03125 30.273438 22.027344 C 30.285156 22.027344 30.292969 22.023438 30.300781 22.019531 C 31.339844 22.34375 32.445312 22.394531 33.507812 22.167969 C 33.835938 22.589844 34.332031 22.921875 34.867188 23.089844 L 34.890625 23.097656 C 35.042969 23.144531 35.195312 23.191406 35.25 23.3125 C 35.289062 23.390625 35.273438 23.484375 35.210938 23.59375 C 34.8125 23.703125 34.386719 23.726562 33.980469 23.660156 L 33.117188 23.367188 C 33.085938 23.351562 33.058594 23.335938 33.027344 23.316406 C 32.972656 23.28125 32.917969 23.246094 32.863281 23.210938 C 32.726562 23.125 32.585938 23.03125 32.429688 22.972656 C 32.269531 22.910156 32.082031 22.902344 31.875 22.945312 C 31.054688 22.667969 30.371094 22.4375 29.75 22.226562 C 29.921875 22.179688 30.09375 22.117188 30.257812 22.03125 Z M 34.855469 23.957031 C 34.738281 23.917969 34.625 23.878906 34.507812 23.839844 C 34.691406 23.835938 34.875 23.816406 35.058594 23.777344 C 35.054688 23.78125 35.050781 23.785156 35.050781 23.785156 C 34.984375 23.84375 34.917969 23.902344 34.855469 23.957031 Z M 32.242188 23.070312 C 32.289062 23.078125 32.335938 23.089844 32.378906 23.105469 C 32.414062 23.121094 32.449219 23.136719 32.484375 23.152344 C 32.402344 23.125 32.324219 23.097656 32.242188 23.070312 Z M 37.15625 25.054688 C 37.136719 25.113281 37.097656 25.148438 37.070312 25.171875 L 37 25.144531 C 36.1875 24.859375 35.371094 24.574219 34.558594 24.289062 L 30.847656 22.984375 C 30.703125 22.859375 30.566406 22.757812 30.433594 22.679688 C 30.121094 22.5 29.785156 22.484375 29.464844 22.5 L 28.628906 22.207031 C 28.613281 22.179688 28.578125 22.167969 28.546875 22.179688 C 28.386719 22.121094 28.226562 22.066406 28.0625 22.007812 C 27.355469 21.761719 26.648438 21.511719 25.941406 21.265625 L 25.734375 21.191406 C 25.488281 21.105469 25.242188 21.019531 24.996094 20.933594 C 24.945312 20.914062 24.890625 20.894531 24.839844 20.878906 C 24.835938 20.875 24.832031 20.871094 24.828125 20.867188 C 24.824219 20.863281 24.820312 20.859375 24.816406 20.855469 C 24.808594 20.851562 24.800781 20.847656 24.796875 20.839844 C 24.792969 20.835938 24.785156 20.832031 24.78125 20.828125 C 24.773438 20.824219 24.769531 20.820312 24.761719 20.816406 C 24.757812 20.8125 24.75 20.808594 24.746094 20.804688 C 24.738281 20.800781 24.730469 20.796875 24.726562 20.792969 C 24.71875 20.789062 24.714844 20.785156 24.710938 20.78125 C 24.703125 20.777344 24.695312 20.773438 24.6875 20.769531 C 24.683594 20.769531 24.675781 20.765625 24.671875 20.761719 C 24.664062 20.757812 24.65625 20.753906 24.648438 20.75 C 24.644531 20.75 24.636719 20.746094 24.632812 20.742188 C 24.625 20.738281 24.617188 20.734375 24.609375 20.734375 C 24.605469 20.730469 24.597656 20.726562 24.59375 20.726562 C 24.585938 20.722656 24.578125 20.71875 24.566406 20.714844 C 24.5625 20.714844 24.558594 20.710938 24.550781 20.710938 C 24.542969 20.707031 24.53125 20.703125 24.523438 20.699219 C 24.511719 20.695312 24.5 20.695312 24.488281 20.691406 C 24.484375 20.6875 24.476562 20.6875 24.46875 20.683594 C 24.460938 20.683594 24.453125 20.679688 24.445312 20.679688 C 24.4375 20.679688 24.429688 20.675781 24.425781 20.675781 C 24.417969 20.671875 24.40625 20.671875 24.398438 20.671875 C 24.394531 20.667969 24.386719 20.667969 24.378906 20.667969 C 24.371094 20.664062 24.363281 20.664062 24.355469 20.664062 C 24.347656 20.664062 24.34375 20.660156 24.335938 20.660156 C 24.328125 20.660156 24.320312 20.660156 24.3125 20.660156 C 24.304688 20.65625 24.296875 20.65625 24.289062 20.65625 C 24.28125 20.65625 24.273438 20.65625 24.265625 20.65625 C 24.257812 20.65625 24.25 20.65625 24.242188 20.65625 C 24.234375 20.65625 24.230469 20.65625 24.222656 20.65625 C 24.214844 20.65625 24.210938 20.65625 24.203125 20.65625 L 24.019531 20.589844 L 23.820312 20.519531 C 23.820312 20.515625 23.820312 20.515625 23.820312 20.511719 C 23.816406 20.492188 23.816406 20.472656 23.816406 20.457031 C 23.816406 20.453125 23.816406 20.449219 23.816406 20.449219 C 23.816406 20.429688 23.816406 20.410156 23.816406 20.390625 C 23.851562 20.402344 23.890625 20.414062 23.925781 20.425781 C 23.949219 20.433594 23.96875 20.441406 23.988281 20.445312 C 23.992188 20.449219 24 20.449219 24.007812 20.453125 C 24.023438 20.457031 24.039062 20.464844 24.054688 20.46875 C 24.0625 20.472656 24.070312 20.472656 24.078125 20.476562 C 24.089844 20.480469 24.105469 20.484375 24.117188 20.488281 C 24.128906 20.492188 24.140625 20.496094 24.152344 20.5 C 24.164062 20.503906 24.171875 20.507812 24.179688 20.507812 C 24.191406 20.515625 24.207031 20.519531 24.21875 20.523438 C 24.238281 20.527344 24.261719 20.535156 24.28125 20.542969 C 24.472656 20.605469 24.675781 20.675781 24.894531 20.746094 C 24.996094 20.78125 25.101562 20.816406 25.210938 20.851562 C 25.535156 20.960938 25.882812 21.074219 26.238281 21.195312 C 26.683594 21.34375 27.175781 21.507812 27.742188 21.699219 C 28.296875 21.886719 28.871094 22.082031 29.453125 22.277344 C 30.144531 22.511719 30.90625 22.769531 31.847656 23.089844 C 32.257812 23.226562 32.660156 23.367188 33.058594 23.5 C 33.0625 23.5 33.066406 23.503906 33.070312 23.503906 L 33.9375 23.800781 C 34.25 23.90625 34.550781 24.007812 34.847656 24.109375 C 35.695312 24.398438 36.476562 24.664062 37.136719 24.886719 C 37.152344 24.917969 37.175781 24.980469 37.15625 25.054688 Z M 35.261719 25.582031 C 35.234375 25.613281 35.210938 25.644531 35.183594 25.671875 C 35.039062 25.847656 34.890625 26.027344 34.710938 26.164062 C 34.546875 26.285156 34.449219 26.269531 34.304688 26.183594 C 34.257812 25.90625 34.269531 25.601562 34.285156 25.308594 C 34.285156 25.277344 34.285156 25.246094 34.289062 25.214844 C 34.289062 25.160156 34.292969 25.097656 34.292969 25.03125 C 34.300781 24.792969 34.433594 24.582031 34.554688 24.441406 C 35.042969 24.613281 35.53125 24.78125 36.023438 24.953125 C 35.703125 25.082031 35.460938 25.34375 35.261719 25.582031 Z M 33.574219 25.792969 C 33.457031 25.742188 33.335938 25.6875 33.21875 25.625 C 32.796875 25.410156 32.269531 25.136719 32.078125 24.683594 C 31.980469 24.445312 31.875 24.234375 31.761719 24.046875 C 31.894531 24.066406 32.027344 24.082031 32.164062 24.089844 C 32.335938 24.101562 32.507812 24.097656 32.683594 24.085938 C 32.84375 24.285156 33.023438 24.472656 33.21875 24.640625 C 33.5 24.882812 33.808594 25.089844 34.140625 25.253906 C 34.140625 25.269531 34.140625 25.285156 34.140625 25.300781 C 34.128906 25.558594 34.117188 25.824219 34.144531 26.078125 C 33.964844 25.964844 33.765625 25.878906 33.574219 25.792969 Z M 31.105469 23.230469 L 34.410156 24.390625 C 34.246094 24.597656 34.15625 24.816406 34.152344 25.027344 C 34.148438 25.050781 34.148438 25.074219 34.148438 25.097656 C 33.847656 24.941406 33.566406 24.753906 33.3125 24.53125 C 33.117188 24.363281 32.933594 24.171875 32.769531 23.96875 C 32.753906 23.949219 32.730469 23.9375 32.707031 23.941406 C 32.53125 23.957031 32.347656 23.957031 32.171875 23.945312 C 32 23.9375 31.828125 23.914062 31.660156 23.882812 C 31.535156 23.691406 31.398438 23.523438 31.242188 23.367188 C 31.199219 23.324219 31.152344 23.277344 31.105469 23.230469 Z M 29.410156 22.898438 C 29.582031 22.9375 29.753906 23.046875 29.902344 23.210938 C 30.042969 23.363281 30.152344 23.550781 30.257812 23.726562 C 30.292969 23.785156 30.324219 23.84375 30.3125 23.890625 C 30.300781 23.945312 30.234375 23.988281 30.171875 24.027344 L 30.15625 24.035156 C 29.964844 24.160156 29.800781 24.332031 29.683594 24.539062 C 29.621094 24.414062 29.546875 24.296875 29.480469 24.179688 C 29.460938 24.148438 29.441406 24.117188 29.421875 24.085938 C 29.285156 23.855469 29.148438 23.605469 29.101562 23.316406 C 29.097656 23.304688 29.097656 23.292969 29.097656 23.28125 C 29.09375 23.261719 29.089844 23.242188 29.089844 23.222656 C 29.089844 23.21875 29.089844 23.210938 29.085938 23.203125 C 29.085938 23.191406 29.085938 23.179688 29.085938 23.167969 C 29.085938 23.160156 29.085938 23.152344 29.085938 23.148438 C 29.085938 23.136719 29.082031 23.125 29.085938 23.117188 C 29.085938 23.109375 29.085938 23.101562 29.085938 23.09375 C 29.085938 23.085938 29.085938 23.074219 29.085938 23.066406 C 29.085938 23.058594 29.085938 23.050781 29.089844 23.042969 C 29.089844 23.035156 29.089844 23.027344 29.089844 23.019531 C 29.09375 23.011719 29.09375 23.003906 29.09375 22.996094 C 29.097656 22.988281 29.097656 22.980469 29.097656 22.972656 C 29.101562 22.964844 29.101562 22.960938 29.105469 22.953125 C 29.105469 22.945312 29.109375 22.9375 29.109375 22.929688 C 29.113281 22.921875 29.113281 22.917969 29.117188 22.910156 C 29.117188 22.90625 29.121094 22.898438 29.121094 22.894531 C 29.214844 22.875 29.316406 22.875 29.410156 22.898438 Z M 28.972656 24.097656 C 28.804688 24.097656 28.570312 24.09375 28.394531 23.929688 C 28.289062 23.832031 28.238281 23.707031 28.210938 23.601562 C 28.292969 23.589844 28.375 23.570312 28.460938 23.546875 C 28.605469 23.507812 28.746094 23.460938 28.882812 23.414062 C 28.910156 23.40625 28.941406 23.394531 28.96875 23.386719 C 29.019531 23.644531 29.128906 23.867188 29.25 24.074219 C 29.15625 24.09375 29.066406 24.101562 28.972656 24.097656 Z M 27.570312 23.457031 C 27.277344 23.382812 27.042969 23.179688 26.96875 22.9375 C 26.925781 22.808594 26.9375 22.675781 26.992188 22.582031 C 27.160156 22.617188 27.339844 22.625 27.519531 22.609375 C 27.886719 22.574219 28.238281 22.445312 28.546875 22.332031 L 29.214844 22.566406 C 29.125 22.617188 29.050781 22.703125 29.003906 22.804688 C 29 22.8125 28.996094 22.820312 28.992188 22.828125 C 28.988281 22.84375 28.980469 22.855469 28.976562 22.871094 C 28.976562 22.871094 28.976562 22.875 28.976562 22.875 C 28.972656 22.890625 28.96875 22.902344 28.964844 22.917969 C 28.964844 22.917969 28.960938 22.921875 28.960938 22.925781 C 28.957031 22.9375 28.957031 22.953125 28.953125 22.964844 C 28.953125 22.96875 28.953125 22.972656 28.953125 22.972656 C 28.949219 22.988281 28.949219 23.003906 28.945312 23.019531 C 28.945312 23.019531 28.945312 23.019531 28.945312 23.023438 C 28.945312 23.039062 28.941406 23.054688 28.941406 23.070312 C 28.941406 23.089844 28.941406 23.105469 28.941406 23.125 C 28.941406 23.125 28.941406 23.125 28.941406 23.128906 C 28.941406 23.144531 28.941406 23.164062 28.941406 23.179688 C 28.941406 23.183594 28.941406 23.183594 28.941406 23.1875 C 28.941406 23.203125 28.945312 23.222656 28.945312 23.238281 C 28.945312 23.238281 28.945312 23.242188 28.945312 23.242188 C 28.910156 23.253906 28.875 23.265625 28.835938 23.277344 C 28.703125 23.324219 28.5625 23.371094 28.425781 23.40625 C 28.304688 23.441406 28.195312 23.460938 28.09375 23.476562 C 27.898438 23.5 27.726562 23.496094 27.570312 23.457031 Z M 27.328125 22.363281 C 27.558594 22.277344 27.796875 22.207031 28.035156 22.152344 C 28.136719 22.1875 28.234375 22.222656 28.332031 22.257812 C 28.074219 22.347656 27.792969 22.4375 27.507812 22.464844 C 27.375 22.476562 27.246094 22.472656 27.121094 22.457031 C 27.183594 22.417969 27.257812 22.386719 27.328125 22.363281 Z M 25.101562 21.351562 C 25.085938 21.28125 25.066406 21.222656 25.042969 21.164062 C 25.042969 21.144531 25.042969 21.121094 25.042969 21.101562 C 25.257812 21.175781 25.472656 21.253906 25.683594 21.328125 C 25.503906 21.367188 25.304688 21.375 25.101562 21.351562 Z M 24.53125 22.285156 C 24.484375 22.363281 24.445312 22.417969 24.386719 22.445312 C 24.328125 22.476562 24.25 22.46875 24.1875 22.460938 C 23.929688 22.421875 23.59375 22.285156 23.429688 22.070312 C 23.382812 22.007812 23.441406 21.867188 23.484375 21.761719 C 23.496094 21.726562 23.511719 21.695312 23.519531 21.664062 C 23.589844 21.472656 23.652344 21.316406 23.71875 21.175781 C 23.753906 21.105469 23.789062 21.042969 23.824219 20.984375 C 23.828125 20.980469 23.832031 20.976562 23.832031 20.972656 C 23.859375 20.929688 23.886719 20.890625 23.917969 20.851562 C 23.921875 20.851562 23.925781 20.847656 23.929688 20.847656 C 23.9375 20.84375 23.941406 20.84375 23.945312 20.84375 C 23.953125 20.839844 23.964844 20.835938 23.972656 20.835938 C 23.976562 20.832031 23.980469 20.832031 23.988281 20.832031 C 23.996094 20.828125 24.003906 20.824219 24.011719 20.824219 C 24.019531 20.824219 24.023438 20.820312 24.027344 20.820312 C 24.039062 20.816406 24.054688 20.8125 24.066406 20.8125 C 24.109375 20.804688 24.152344 20.800781 24.195312 20.796875 C 24.335938 20.792969 24.472656 20.824219 24.59375 20.882812 C 24.652344 20.914062 24.707031 20.949219 24.753906 20.992188 C 24.785156 21.023438 24.8125 21.054688 24.835938 21.085938 C 24.84375 21.09375 24.847656 21.105469 24.855469 21.113281 C 24.855469 21.117188 24.859375 21.121094 24.859375 21.121094 C 24.863281 21.128906 24.867188 21.132812 24.871094 21.140625 C 24.871094 21.144531 24.875 21.148438 24.878906 21.152344 C 24.878906 21.15625 24.882812 21.164062 24.886719 21.167969 C 24.886719 21.171875 24.890625 21.175781 24.894531 21.183594 C 24.894531 21.183594 24.894531 21.1875 24.898438 21.191406 C 24.898438 21.195312 24.894531 21.203125 24.894531 21.210938 C 24.894531 21.21875 24.894531 21.222656 24.894531 21.230469 C 24.894531 21.242188 24.890625 21.25 24.890625 21.261719 C 24.890625 21.269531 24.890625 21.273438 24.886719 21.28125 C 24.886719 21.292969 24.886719 21.304688 24.882812 21.316406 C 24.882812 21.320312 24.882812 21.328125 24.882812 21.332031 C 24.878906 21.351562 24.875 21.367188 24.875 21.386719 C 24.824219 21.671875 24.703125 21.992188 24.53125 22.285156 Z M 23.214844 21.183594 C 23.089844 21.324219 22.996094 21.484375 22.910156 21.640625 C 22.855469 21.734375 22.800781 21.828125 22.742188 21.917969 C 22.585938 22.148438 22.457031 22.390625 22.34375 22.652344 C 22.304688 22.742188 22.265625 22.832031 22.230469 22.921875 L 22.171875 23.058594 C 22.035156 23.035156 21.898438 23.015625 21.757812 23.007812 C 21.886719 22.382812 22.042969 21.765625 22.199219 21.183594 C 22.59375 21.183594 22.964844 21.148438 23.300781 21.085938 C 23.273438 21.117188 23.242188 21.148438 23.214844 21.183594 Z M 21.511719 24.671875 C 21.550781 24.203125 21.621094 23.699219 21.730469 23.152344 C 21.859375 23.15625 21.988281 23.171875 22.113281 23.195312 C 21.902344 23.691406 21.699219 24.179688 21.511719 24.671875 Z M 20.285156 23.402344 C 20.617188 23.261719 20.976562 23.175781 21.339844 23.152344 C 21.316406 23.261719 21.285156 23.371094 21.257812 23.480469 C 21.203125 23.667969 21.152344 23.867188 21.117188 24.066406 C 21.054688 24.417969 21.035156 24.773438 21.054688 25.128906 C 21.058594 25.183594 21.066406 25.238281 21.070312 25.296875 C 20.988281 24.75 20.785156 24.011719 20.285156 23.402344 Z M 21.542969 21.175781 C 21.550781 21.179688 21.558594 21.183594 21.566406 21.183594 C 21.578125 21.183594 21.59375 21.179688 21.605469 21.171875 C 21.605469 21.171875 21.609375 21.167969 21.609375 21.167969 C 21.667969 21.171875 21.726562 21.175781 21.78125 21.175781 C 21.648438 21.785156 21.511719 22.398438 21.375 23.007812 C 20.964844 23.027344 20.558594 23.125 20.1875 23.289062 C 20.144531 23.242188 20.101562 23.195312 20.058594 23.15625 C 20.777344 22.71875 21.328125 21.992188 21.542969 21.175781 Z M 21.601562 23.0625 C 21.457031 23.785156 21.371094 24.429688 21.347656 25.03125 C 21.304688 25.09375 21.261719 25.160156 21.207031 25.21875 C 21.203125 25.1875 21.203125 25.152344 21.199219 25.121094 C 21.179688 24.777344 21.199219 24.429688 21.257812 24.089844 C 21.292969 23.898438 21.34375 23.703125 21.394531 23.519531 C 21.433594 23.382812 21.472656 23.242188 21.503906 23.101562 L 21.503906 23.09375 C 21.644531 22.457031 21.785156 21.816406 21.929688 21.179688 C 21.96875 21.183594 22.007812 21.183594 22.050781 21.183594 C 21.890625 21.785156 21.730469 22.417969 21.601562 23.0625 Z M 22.929688 20.207031 L 22.792969 20.160156 C 22.765625 20.148438 22.734375 20.15625 22.714844 20.179688 C 22.695312 20.199219 22.691406 20.230469 22.703125 20.257812 L 22.710938 20.277344 C 22.726562 20.308594 22.746094 20.347656 22.773438 20.382812 C 22.683594 20.382812 22.605469 20.335938 22.5625 20.308594 C 22.550781 20.300781 22.535156 20.289062 22.519531 20.28125 C 22.425781 20.222656 22.367188 20.179688 22.367188 20.109375 C 22.367188 20.097656 22.367188 20.066406 22.386719 20.042969 C 22.390625 20.035156 22.441406 19.992188 22.570312 20 C 22.597656 20.003906 22.730469 20.039062 23.347656 20.238281 C 23.347656 20.277344 23.351562 20.316406 23.351562 20.355469 C 23.210938 20.304688 23.070312 20.257812 22.929688 20.207031 Z M 23.242188 19.136719 C 23.195312 19.089844 23.136719 19.054688 23.078125 19.03125 C 23.046875 19.023438 23.019531 19.015625 22.988281 19.011719 C 23.039062 18.984375 23.097656 18.96875 23.15625 18.96875 C 23.3125 18.96875 23.457031 19.058594 23.542969 19.210938 C 23.585938 19.289062 23.621094 19.375 23.644531 19.472656 C 23.644531 19.492188 23.648438 19.507812 23.648438 19.523438 C 23.648438 19.535156 23.652344 19.546875 23.652344 19.558594 C 23.65625 19.574219 23.65625 19.59375 23.65625 19.609375 C 23.660156 19.621094 23.660156 19.632812 23.660156 19.648438 C 23.664062 19.664062 23.664062 19.679688 23.664062 19.695312 C 23.667969 19.707031 23.667969 19.722656 23.667969 19.734375 C 23.671875 19.75 23.671875 19.769531 23.671875 19.785156 C 23.671875 19.796875 23.671875 19.808594 23.675781 19.820312 C 23.675781 19.839844 23.675781 19.855469 23.675781 19.875 C 23.675781 19.886719 23.675781 19.898438 23.675781 19.910156 C 23.679688 19.925781 23.679688 19.945312 23.679688 19.960938 C 23.679688 19.972656 23.679688 19.984375 23.679688 19.996094 C 23.679688 20.007812 23.679688 20.015625 23.679688 20.027344 C 23.679688 20.035156 23.679688 20.042969 23.679688 20.054688 C 23.679688 20.0625 23.679688 20.074219 23.679688 20.082031 C 23.679688 20.113281 23.675781 20.140625 23.675781 20.171875 C 23.675781 20.179688 23.675781 20.191406 23.675781 20.199219 C 23.675781 20.226562 23.671875 20.257812 23.671875 20.289062 C 23.671875 20.3125 23.671875 20.332031 23.671875 20.355469 C 23.671875 20.421875 23.675781 20.496094 23.675781 20.574219 C 23.679688 20.648438 23.679688 20.722656 23.683594 20.796875 C 23.632812 20.824219 23.582031 20.855469 23.53125 20.894531 C 23.519531 20.894531 23.507812 20.898438 23.5 20.898438 L 23.496094 20.457031 C 23.496094 20.367188 23.492188 20.273438 23.492188 20.183594 L 23.488281 19.910156 C 23.488281 19.664062 23.445312 19.464844 23.363281 19.300781 C 23.328125 19.238281 23.289062 19.183594 23.242188 19.136719 Z M 23.828125 20.730469 C 23.828125 20.730469 23.828125 20.730469 23.824219 20.730469 C 23.824219 20.710938 23.824219 20.691406 23.824219 20.671875 L 23.867188 20.6875 C 23.855469 20.703125 23.839844 20.714844 23.828125 20.730469 Z M 24.605469 19.535156 C 24.785156 19.617188 24.941406 19.726562 25.105469 19.84375 C 25.214844 19.917969 25.328125 19.996094 25.445312 20.066406 C 25.558594 20.273438 25.738281 20.441406 25.945312 20.53125 C 26.09375 20.597656 26.257812 20.625 26.425781 20.613281 C 26.433594 20.652344 26.429688 20.695312 26.421875 20.746094 C 26.402344 20.871094 26.320312 20.972656 26.246094 21.046875 C 26.242188 21.042969 26.242188 21.042969 26.242188 21.042969 C 26.1875 21.027344 26.132812 21.007812 26.082031 20.992188 C 26.0625 20.984375 26.042969 20.976562 26.019531 20.96875 C 25.984375 20.957031 25.953125 20.945312 25.917969 20.933594 C 25.871094 20.921875 25.828125 20.90625 25.785156 20.890625 C 25.777344 20.886719 25.765625 20.886719 25.753906 20.882812 C 25.472656 20.785156 25.199219 20.695312 24.9375 20.609375 C 24.722656 20.539062 24.519531 20.46875 24.328125 20.40625 C 24.289062 20.394531 24.25 20.382812 24.210938 20.367188 C 24.203125 20.367188 24.199219 20.363281 24.191406 20.359375 C 24.175781 20.355469 24.164062 20.351562 24.152344 20.347656 C 24.140625 20.34375 24.128906 20.339844 24.121094 20.339844 C 24.109375 20.335938 24.097656 20.332031 24.082031 20.324219 C 24.074219 20.324219 24.0625 20.320312 24.050781 20.316406 C 24.039062 20.3125 24.03125 20.308594 24.019531 20.304688 C 24.007812 20.300781 23.996094 20.296875 23.984375 20.292969 C 23.972656 20.289062 23.964844 20.285156 23.953125 20.28125 C 23.941406 20.277344 23.929688 20.277344 23.917969 20.273438 C 23.910156 20.269531 23.898438 20.265625 23.886719 20.261719 C 23.878906 20.257812 23.867188 20.253906 23.859375 20.25 C 23.847656 20.25 23.835938 20.246094 23.824219 20.242188 C 23.820312 20.238281 23.820312 20.238281 23.816406 20.238281 C 23.820312 20.238281 23.820312 20.238281 23.820312 20.234375 C 23.820312 20.230469 23.820312 20.222656 23.820312 20.214844 C 23.820312 20.210938 23.820312 20.207031 23.820312 20.207031 C 23.820312 20.195312 23.820312 20.1875 23.820312 20.175781 C 23.828125 19.945312 23.835938 19.6875 23.785156 19.449219 C 23.785156 19.441406 23.78125 19.4375 23.78125 19.429688 L 23.78125 19.425781 C 23.777344 19.394531 23.773438 19.367188 23.765625 19.332031 C 24.050781 19.375 24.347656 19.417969 24.605469 19.535156 Z M 26.359375 20.472656 C 26.234375 20.472656 26.113281 20.445312 26.003906 20.398438 C 25.898438 20.351562 25.804688 20.285156 25.722656 20.203125 C 25.78125 20.222656 25.84375 20.242188 25.910156 20.261719 C 26.082031 20.3125 26.261719 20.367188 26.359375 20.472656 Z M 24.386719 24.761719 C 24.453125 24.855469 24.464844 24.984375 24.472656 25.09375 C 24.492188 25.425781 24.472656 25.78125 24.410156 26.183594 C 24.402344 26.226562 24.398438 26.269531 24.390625 26.3125 C 24.351562 26.585938 24.304688 26.898438 24.175781 27.128906 C 24.15625 27.164062 24.136719 27.199219 24.117188 27.234375 C 24.105469 27.253906 24.097656 27.277344 24.085938 27.296875 C 23.984375 27.488281 23.890625 27.667969 23.746094 27.832031 C 23.570312 28.042969 23.359375 28.21875 23.125 28.363281 C 23.058594 28.40625 22.984375 28.445312 22.914062 28.480469 C 22.964844 28.242188 23.007812 28.007812 23.042969 27.792969 L 23.082031 27.578125 C 23.257812 27.507812 23.441406 27.421875 23.585938 27.273438 C 23.765625 27.082031 23.839844 26.839844 23.914062 26.605469 C 23.925781 26.578125 23.933594 26.546875 23.941406 26.519531 C 24.117188 25.972656 24.226562 25.40625 24.261719 24.832031 C 24.265625 24.777344 24.265625 24.722656 24.265625 24.675781 C 24.3125 24.691406 24.355469 24.71875 24.386719 24.761719 Z M 24.148438 27.589844 C 24.125 27.75 24.050781 27.898438 23.976562 28.046875 L 23.96875 28.066406 C 23.820312 28.371094 23.667969 28.683594 23.421875 28.902344 C 23.386719 28.933594 23.355469 28.960938 23.324219 28.992188 C 23.144531 29.160156 22.972656 29.320312 22.722656 29.363281 C 22.703125 29.367188 22.679688 29.371094 22.65625 29.371094 C 22.738281 29.160156 22.808594 28.925781 22.875 28.65625 C 22.984375 28.609375 23.097656 28.550781 23.203125 28.488281 C 23.449219 28.335938 23.667969 28.148438 23.855469 27.925781 C 23.980469 27.785156 24.066406 27.636719 24.152344 27.480469 C 24.152344 27.515625 24.152344 27.550781 24.148438 27.589844 Z M 23.277344 26.453125 L 23.28125 26.410156 C 23.292969 26.359375 23.296875 26.308594 23.304688 26.257812 C 23.324219 26.117188 23.34375 25.964844 23.40625 25.847656 C 23.429688 25.796875 23.460938 25.746094 23.488281 25.695312 C 23.535156 25.617188 23.582031 25.535156 23.621094 25.445312 C 23.773438 25.097656 23.949219 24.753906 24.105469 24.457031 C 24.113281 24.496094 24.117188 24.539062 24.121094 24.585938 C 24.125 24.65625 24.125 24.734375 24.117188 24.824219 C 24.082031 25.382812 23.976562 25.941406 23.804688 26.476562 C 23.796875 26.503906 23.785156 26.535156 23.777344 26.5625 C 23.707031 26.792969 23.636719 27.007812 23.480469 27.171875 C 23.378906 27.28125 23.246094 27.351562 23.109375 27.410156 C 23.164062 27.089844 23.21875 26.769531 23.277344 26.453125 Z M 42.203125 32.46875 C 41.382812 31.253906 40.730469 29.921875 40.265625 28.519531 C 40.027344 27.8125 39.839844 27.082031 39.707031 26.355469 C 39.699219 26.316406 39.691406 26.273438 39.683594 26.234375 C 39.632812 25.949219 39.589844 25.703125 39.445312 25.4375 C 39.265625 25.097656 39.148438 24.71875 39.0625 24.425781 C 39.023438 24.285156 38.996094 24.136719 38.964844 23.996094 C 38.945312 23.890625 38.925781 23.785156 38.898438 23.679688 C 38.828125 23.386719 38.792969 23.117188 38.792969 22.859375 C 38.792969 22.523438 38.582031 22.179688 38.230469 21.945312 C 38.003906 21.792969 37.75 21.695312 37.503906 21.597656 C 37.425781 21.566406 37.34375 21.535156 37.265625 21.503906 C 36.925781 21.363281 36.652344 21.234375 36.46875 20.972656 C 36.460938 20.960938 36.453125 20.949219 36.441406 20.945312 C 36.347656 20.90625 36.253906 20.871094 36.152344 20.832031 C 35.816406 20.699219 35.429688 20.546875 35.195312 20.3125 L 35.191406 20.308594 C 34.886719 20.003906 34.625 19.738281 34.175781 19.613281 C 33.796875 19.507812 33.449219 19.621094 33.113281 19.730469 C 33.023438 19.761719 32.933594 19.792969 32.839844 19.816406 C 32.179688 20.003906 31.558594 20.03125 30.890625 19.90625 C 30.875 19.902344 30.859375 19.902344 30.847656 19.910156 C 30.21875 20.167969 29.554688 20.332031 28.871094 20.398438 C 28.546875 20.429688 28.214844 20.441406 27.890625 20.425781 C 27.765625 20.421875 27.609375 20.414062 27.488281 20.503906 C 27.367188 20.597656 27.320312 20.761719 27.355469 20.972656 C 27.359375 20.996094 27.367188 21.023438 27.371094 21.046875 C 27.414062 21.203125 27.476562 21.351562 27.566406 21.488281 C 27.136719 21.34375 26.75 21.214844 26.394531 21.097656 C 26.488281 20.996094 26.546875 20.882812 26.566406 20.769531 C 26.582031 20.675781 26.574219 20.585938 26.546875 20.511719 C 26.460938 20.273438 26.191406 20.195312 25.949219 20.125 C 25.863281 20.097656 25.78125 20.074219 25.714844 20.042969 C 25.65625 20.019531 25.597656 19.988281 25.539062 19.953125 C 25.535156 19.953125 25.535156 19.953125 25.535156 19.953125 C 25.417969 19.882812 25.300781 19.800781 25.191406 19.726562 C 25.027344 19.609375 24.855469 19.492188 24.667969 19.40625 C 24.382812 19.277344 24.074219 19.230469 23.777344 19.191406 L 23.6875 19.175781 C 23.683594 19.164062 23.675781 19.152344 23.667969 19.136719 C 23.554688 18.941406 23.367188 18.824219 23.160156 18.824219 C 23.160156 18.824219 23.15625 18.824219 23.15625 18.824219 C 22.96875 18.828125 22.800781 18.925781 22.691406 19.097656 C 22.671875 19.097656 22.652344 19.097656 22.632812 19.097656 C 22.285156 19.097656 21.933594 19.121094 21.589844 19.140625 L 21.585938 19.140625 C 21.234375 19.160156 20.792969 19.1875 20.449219 19.417969 C 20.265625 19.539062 20.125 19.710938 19.988281 19.878906 C 19.972656 19.902344 19.953125 19.921875 19.933594 19.945312 C 19.546875 20.417969 19.078125 20.847656 18.417969 21.34375 C 18.082031 21.59375 17.800781 21.96875 17.53125 22.332031 C 17.410156 22.496094 17.292969 22.652344 17.171875 22.792969 C 17.007812 22.992188 16.835938 23.195312 16.734375 23.441406 C 16.652344 23.632812 16.683594 23.847656 16.714844 24.050781 C 16.726562 24.121094 16.734375 24.1875 16.742188 24.25 C 16.820312 25.191406 16.765625 26.140625 16.582031 27.070312 C 16.492188 27.511719 16.421875 27.859375 16.4375 28.320312 C 16.453125 28.75 16.460938 29.257812 16.398438 29.75 C 16.320312 30.421875 16 31.039062 15.695312 31.636719 C 15.644531 31.730469 15.59375 31.832031 15.542969 31.929688 C 15.183594 32.648438 14.746094 33.472656 14.148438 34.171875 C 14.121094 34.203125 14.125 34.246094 14.15625 34.273438 C 14.167969 34.285156 14.1875 34.289062 14.203125 34.289062 C 14.222656 34.289062 14.242188 34.28125 14.257812 34.265625 C 14.867188 33.554688 15.308594 32.71875 15.671875 31.992188 C 15.722656 31.894531 15.773438 31.796875 15.820312 31.703125 C 16.136719 31.09375 16.460938 30.464844 16.542969 29.765625 C 16.601562 29.265625 16.597656 28.753906 16.582031 28.316406 C 16.566406 27.871094 16.636719 27.527344 16.722656 27.097656 C 16.910156 26.15625 16.964844 25.191406 16.882812 24.238281 C 16.878906 24.167969 16.867188 24.097656 16.855469 24.03125 C 16.828125 23.84375 16.800781 23.652344 16.867188 23.496094 C 16.960938 23.269531 17.125 23.074219 17.285156 22.886719 C 17.40625 22.742188 17.523438 22.582031 17.648438 22.417969 C 17.910156 22.0625 18.183594 21.699219 18.503906 21.457031 C 19.171875 20.957031 19.648438 20.515625 20.046875 20.039062 C 20.0625 20.015625 20.082031 19.992188 20.101562 19.96875 C 20.230469 19.8125 20.363281 19.648438 20.53125 19.535156 C 20.839844 19.328125 21.257812 19.304688 21.59375 19.285156 L 21.601562 19.28125 C 21.941406 19.261719 22.289062 19.242188 22.632812 19.242188 C 22.824219 19.242188 22.996094 19.246094 23.160156 19.261719 C 23.1875 19.289062 23.214844 19.328125 23.234375 19.367188 C 23.304688 19.507812 23.34375 19.691406 23.347656 19.910156 L 23.347656 20.085938 C 22.648438 19.863281 22.605469 19.859375 22.582031 19.855469 C 22.367188 19.839844 22.285156 19.941406 22.273438 19.953125 C 22.242188 19.992188 22.222656 20.046875 22.222656 20.109375 C 22.222656 20.265625 22.34375 20.339844 22.441406 20.402344 C 22.457031 20.410156 22.46875 20.421875 22.484375 20.429688 C 22.652344 20.542969 22.832031 20.558594 22.96875 20.46875 C 22.992188 20.453125 23.003906 20.425781 23 20.398438 C 22.996094 20.394531 22.996094 20.386719 22.996094 20.382812 C 23.113281 20.425781 23.234375 20.464844 23.351562 20.507812 L 23.355469 20.929688 C 22.992188 21.003906 22.585938 21.039062 22.148438 21.039062 C 22.148438 21.039062 22.144531 21.039062 22.140625 21.039062 C 22.050781 21.039062 21.960938 21.039062 21.875 21.035156 C 21.785156 21.03125 21.695312 21.027344 21.601562 21.023438 L 21.597656 21.015625 C 21.59375 21.003906 21.585938 21 21.578125 20.992188 C 21.464844 20.800781 21.382812 20.589844 21.332031 20.371094 C 21.320312 20.335938 21.28125 20.308594 21.246094 20.320312 C 21.207031 20.328125 21.179688 20.367188 21.191406 20.40625 C 21.242188 20.628906 21.324219 20.839844 21.4375 21.039062 C 21.429688 21.046875 21.425781 21.058594 21.421875 21.070312 C 21.21875 21.90625 20.65625 22.65625 19.90625 23.074219 C 19.449219 22.925781 18.933594 22.9375 18.484375 23.109375 C 18.445312 23.121094 18.429688 23.164062 18.441406 23.199219 C 18.453125 23.230469 18.480469 23.246094 18.511719 23.246094 C 18.519531 23.246094 18.527344 23.246094 18.535156 23.242188 C 18.964844 23.078125 19.464844 23.070312 19.898438 23.226562 C 19.90625 23.230469 19.917969 23.230469 19.925781 23.230469 C 19.992188 23.289062 20.054688 23.355469 20.113281 23.421875 C 20.660156 24.042969 20.863281 24.832031 20.9375 25.386719 C 20.941406 25.417969 20.945312 25.445312 20.949219 25.476562 C 20.851562 25.5625 20.746094 25.636719 20.636719 25.710938 C 20.632812 25.703125 20.632812 25.695312 20.628906 25.683594 C 20.496094 25.390625 20.242188 25.128906 19.902344 24.921875 C 19.601562 24.742188 19.269531 24.625 18.949219 24.511719 C 18.910156 24.5 18.871094 24.519531 18.855469 24.558594 C 18.84375 24.59375 18.863281 24.636719 18.898438 24.648438 C 19.214844 24.757812 19.539062 24.875 19.828125 25.046875 C 20.144531 25.234375 20.375 25.476562 20.496094 25.746094 C 20.503906 25.761719 20.515625 25.773438 20.53125 25.777344 C 20.390625 25.867188 20.246094 25.953125 20.101562 26.035156 C 20.054688 26.0625 20.007812 26.089844 19.964844 26.117188 C 19.867188 26.171875 19.769531 26.230469 19.671875 26.285156 C 19.636719 26.308594 19.625 26.351562 19.644531 26.386719 C 19.65625 26.40625 19.683594 26.421875 19.707031 26.421875 C 19.71875 26.421875 19.730469 26.417969 19.742188 26.410156 C 19.839844 26.355469 19.9375 26.296875 20.035156 26.238281 C 20.082031 26.214844 20.128906 26.1875 20.171875 26.160156 C 20.484375 25.980469 20.804688 25.796875 21.070312 25.5625 C 21.070312 25.5625 21.070312 25.5625 21.074219 25.5625 C 21.117188 25.519531 21.164062 25.480469 21.203125 25.4375 C 21.316406 25.324219 21.40625 25.210938 21.480469 25.089844 C 21.535156 24.996094 21.582031 24.898438 21.617188 24.800781 C 21.820312 24.257812 22.046875 23.71875 22.28125 23.167969 L 22.363281 22.976562 C 22.398438 22.886719 22.4375 22.796875 22.476562 22.707031 C 22.585938 22.453125 22.710938 22.222656 22.859375 22 C 22.925781 21.90625 22.980469 21.808594 23.035156 21.710938 C 23.125 21.554688 23.207031 21.410156 23.324219 21.277344 C 23.371094 21.21875 23.425781 21.167969 23.476562 21.117188 C 23.515625 21.085938 23.554688 21.054688 23.59375 21.027344 C 23.609375 21.023438 23.625 21.015625 23.640625 21.011719 C 23.625 21.042969 23.609375 21.078125 23.589844 21.113281 C 23.519531 21.257812 23.453125 21.417969 23.386719 21.617188 C 23.375 21.644531 23.363281 21.675781 23.351562 21.707031 C 23.289062 21.851562 23.21875 22.027344 23.3125 22.15625 C 23.515625 22.421875 23.898438 22.5625 24.167969 22.601562 C 24.199219 22.605469 24.238281 22.613281 24.277344 22.613281 C 24.335938 22.613281 24.394531 22.601562 24.449219 22.574219 C 24.546875 22.53125 24.605469 22.441406 24.65625 22.355469 C 24.765625 22.167969 24.90625 21.882812 24.984375 21.554688 C 24.988281 21.601562 24.992188 21.652344 24.992188 21.710938 C 24.996094 22.195312 24.878906 22.683594 24.65625 23.117188 C 24.527344 23.367188 24.394531 23.617188 24.261719 23.859375 C 24.195312 23.980469 24.128906 24.109375 24.0625 24.234375 C 23.878906 24.570312 23.671875 24.972656 23.488281 25.390625 C 23.453125 25.472656 23.410156 25.546875 23.363281 25.625 C 23.335938 25.675781 23.304688 25.726562 23.277344 25.78125 C 23.203125 25.921875 23.183594 26.085938 23.164062 26.238281 C 23.15625 26.292969 23.148438 26.339844 23.140625 26.386719 L 23.132812 26.425781 C 23.070312 26.789062 23.007812 27.152344 22.945312 27.511719 L 22.902344 27.769531 C 22.855469 28.023438 22.808594 28.308594 22.742188 28.589844 C 22.667969 28.914062 22.582031 29.183594 22.480469 29.421875 C 22.480469 29.421875 22.480469 29.425781 22.476562 29.425781 C 22.417969 29.566406 22.351562 29.695312 22.277344 29.816406 C 21.878906 30.476562 21.332031 31.039062 20.804688 31.585938 C 20.464844 31.9375 20.113281 32.296875 19.800781 32.6875 C 18.832031 33.882812 18.136719 35.308594 17.792969 36.808594 C 17.78125 36.847656 17.808594 36.882812 17.847656 36.894531 C 17.851562 36.894531 17.855469 36.894531 17.863281 36.894531 C 17.894531 36.894531 17.925781 36.871094 17.933594 36.839844 C 18.273438 35.363281 18.957031 33.957031 19.910156 32.777344 C 20.21875 32.394531 20.570312 32.035156 20.90625 31.683594 C 21.441406 31.132812 21.992188 30.5625 22.398438 29.890625 C 22.46875 29.777344 22.535156 29.652344 22.59375 29.523438 C 22.644531 29.519531 22.699219 29.515625 22.75 29.503906 C 23.039062 29.453125 23.234375 29.273438 23.421875 29.097656 C 23.453125 29.070312 23.484375 29.039062 23.519531 29.007812 C 23.785156 28.769531 23.941406 28.445312 24.097656 28.132812 L 24.109375 28.109375 C 24.179688 27.960938 24.261719 27.792969 24.289062 27.613281 C 24.308594 27.472656 24.28125 27.355469 24.257812 27.277344 C 24.273438 27.25 24.289062 27.222656 24.300781 27.199219 C 24.441406 26.945312 24.492188 26.621094 24.53125 26.335938 C 24.539062 26.289062 24.546875 26.246094 24.550781 26.207031 C 24.617188 25.792969 24.636719 25.429688 24.617188 25.085938 C 24.605469 24.945312 24.585938 24.800781 24.503906 24.679688 C 24.4375 24.582031 24.335938 24.542969 24.261719 24.523438 C 24.25 24.429688 24.230469 24.34375 24.203125 24.273438 C 24.265625 24.15625 24.328125 24.039062 24.390625 23.929688 C 24.519531 23.683594 24.65625 23.433594 24.785156 23.183594 C 25.019531 22.730469 25.140625 22.21875 25.136719 21.707031 C 25.136719 21.632812 25.132812 21.5625 25.125 21.496094 C 25.195312 21.503906 25.265625 21.507812 25.332031 21.507812 C 25.542969 21.507812 25.738281 21.476562 25.917969 21.410156 C 26.539062 21.628906 27.164062 21.847656 27.789062 22.066406 C 27.617188 22.109375 27.445312 22.164062 27.277344 22.226562 C 27.148438 22.273438 27.003906 22.335938 26.90625 22.457031 C 26.902344 22.460938 26.898438 22.464844 26.894531 22.472656 C 26.796875 22.605469 26.773438 22.796875 26.828125 22.980469 C 26.921875 23.273438 27.191406 23.507812 27.535156 23.59375 C 27.640625 23.621094 27.753906 23.636719 27.871094 23.636719 C 27.9375 23.636719 28 23.632812 28.070312 23.625 C 28.097656 23.753906 28.160156 23.910156 28.296875 24.039062 C 28.515625 24.234375 28.789062 24.242188 28.972656 24.242188 C 28.980469 24.242188 28.988281 24.242188 28.996094 24.242188 C 29.105469 24.242188 29.214844 24.230469 29.324219 24.203125 C 29.335938 24.222656 29.347656 24.238281 29.355469 24.253906 C 29.453125 24.414062 29.542969 24.566406 29.613281 24.726562 C 29.613281 24.726562 29.613281 24.730469 29.613281 24.730469 C 29.640625 24.789062 29.660156 24.84375 29.679688 24.902344 C 29.84375 25.433594 30.078125 25.933594 30.375 26.382812 C 30.746094 26.949219 31.097656 27.355469 31.449219 27.625 C 31.671875 27.792969 31.933594 27.929688 32.183594 28.0625 C 32.226562 28.082031 32.265625 28.105469 32.308594 28.128906 C 32.480469 29.15625 33.003906 30.125 33.785156 30.867188 C 34.140625 31.199219 34.546875 31.464844 34.9375 31.71875 C 35.457031 32.054688 35.996094 32.40625 36.398438 32.917969 C 36.882812 33.53125 37.183594 34.246094 37.265625 34.992188 C 37.273438 35.027344 37.304688 35.054688 37.339844 35.054688 C 37.339844 35.054688 37.34375 35.054688 37.347656 35.054688 C 37.386719 35.050781 37.414062 35.015625 37.410156 34.976562 C 37.320312 34.203125 37.011719 33.460938 36.511719 32.828125 C 36.09375 32.296875 35.546875 31.941406 35.015625 31.597656 C 34.628906 31.347656 34.226562 31.085938 33.882812 30.761719 C 33.152344 30.070312 32.65625 29.171875 32.46875 28.214844 C 32.601562 28.289062 32.738281 28.367188 32.867188 28.460938 C 32.878906 28.46875 32.894531 28.472656 32.90625 28.472656 C 32.929688 28.472656 32.953125 28.464844 32.964844 28.445312 C 32.988281 28.414062 32.984375 28.367188 32.949219 28.34375 C 32.773438 28.214844 32.585938 28.109375 32.40625 28.015625 C 32.355469 27.988281 32.304688 27.960938 32.25 27.933594 C 31.992188 27.800781 31.75 27.671875 31.535156 27.507812 C 31.300781 27.332031 31.066406 27.085938 30.824219 26.769531 C 30.824219 26.765625 30.828125 26.761719 30.828125 26.757812 C 30.953125 26.453125 31.199219 26.195312 31.5 26.054688 C 31.535156 26.035156 31.550781 25.992188 31.535156 25.957031 C 31.515625 25.921875 31.472656 25.90625 31.4375 25.921875 C 31.128906 26.070312 30.871094 26.328125 30.722656 26.636719 C 30.695312 26.597656 30.667969 26.558594 30.636719 26.515625 C 30.652344 26.503906 30.664062 26.484375 30.664062 26.460938 C 30.671875 26.183594 30.863281 25.910156 31.125 25.816406 C 31.164062 25.800781 31.183594 25.761719 31.167969 25.722656 C 31.15625 25.6875 31.113281 25.667969 31.074219 25.679688 C 30.789062 25.785156 30.574219 26.054688 30.53125 26.355469 C 30.519531 26.339844 30.507812 26.320312 30.496094 26.304688 C 30.207031 25.863281 29.980469 25.378906 29.816406 24.859375 C 29.800781 24.808594 29.78125 24.753906 29.757812 24.703125 C 29.867188 24.476562 30.035156 24.285156 30.234375 24.15625 L 30.25 24.148438 C 30.328125 24.097656 30.429688 24.035156 30.453125 23.917969 C 30.476562 23.8125 30.417969 23.714844 30.382812 23.652344 C 30.273438 23.46875 30.160156 23.277344 30.011719 23.117188 C 29.839844 22.929688 29.644531 22.804688 29.441406 22.757812 C 29.371094 22.738281 29.296875 22.734375 29.226562 22.738281 C 29.28125 22.683594 29.347656 22.652344 29.417969 22.648438 C 29.429688 22.648438 29.445312 22.644531 29.457031 22.644531 C 29.757812 22.628906 30.078125 22.640625 30.359375 22.804688 C 30.488281 22.878906 30.621094 22.976562 30.761719 23.101562 C 30.894531 23.222656 31.023438 23.351562 31.140625 23.46875 C 31.292969 23.625 31.429688 23.792969 31.554688 23.984375 C 31.699219 24.203125 31.824219 24.449219 31.945312 24.738281 C 32.15625 25.242188 32.710938 25.527344 33.152344 25.753906 C 33.273438 25.816406 33.398438 25.871094 33.515625 25.925781 C 33.726562 26.015625 33.9375 26.113281 34.125 26.238281 C 34.152344 26.257812 34.179688 26.273438 34.203125 26.289062 C 34.304688 26.351562 34.398438 26.394531 34.5 26.394531 C 34.589844 26.394531 34.6875 26.359375 34.796875 26.277344 C 34.988281 26.132812 35.144531 25.945312 35.296875 25.765625 C 35.320312 25.734375 35.34375 25.707031 35.371094 25.675781 C 35.570312 25.4375 35.808594 25.175781 36.125 25.070312 C 36.152344 25.058594 36.167969 25.035156 36.171875 25.007812 C 36.433594 25.097656 36.691406 25.191406 36.953125 25.28125 L 37.054688 25.316406 C 37.0625 25.320312 37.070312 25.320312 37.078125 25.320312 C 37.089844 25.320312 37.101562 25.320312 37.113281 25.3125 C 37.144531 25.296875 37.253906 25.230469 37.292969 25.09375 C 37.335938 24.941406 37.265625 24.820312 37.242188 24.785156 C 37.234375 24.773438 37.222656 24.765625 37.207031 24.757812 C 36.570312 24.542969 35.824219 24.289062 35.011719 24.011719 C 35.058594 23.972656 35.101562 23.933594 35.148438 23.890625 C 35.214844 23.828125 35.273438 23.761719 35.316406 23.695312 C 35.421875 23.535156 35.441406 23.382812 35.382812 23.25 C 35.300781 23.074219 35.097656 23.011719 34.933594 22.960938 L 34.910156 22.953125 C 34.386719 22.789062 33.90625 22.457031 33.59375 22.046875 C 33.585938 22.035156 33.574219 22.027344 33.5625 22.023438 C 33.582031 22.007812 33.597656 21.984375 33.59375 21.957031 C 33.566406 21.585938 33.589844 21.210938 33.65625 20.84375 C 33.664062 20.804688 33.640625 20.769531 33.601562 20.761719 C 33.5625 20.753906 33.523438 20.78125 33.515625 20.820312 C 33.445312 21.195312 33.421875 21.582031 33.449219 21.96875 C 33.453125 21.992188 33.46875 22.015625 33.488281 22.027344 C 32.453125 22.25 31.378906 22.199219 30.367188 21.890625 C 30.367188 21.886719 30.363281 21.882812 30.363281 21.878906 C 30.273438 21.628906 30.257812 21.347656 30.320312 21.089844 C 30.328125 21.050781 30.304688 21.011719 30.265625 21.003906 C 30.226562 20.996094 30.1875 21.019531 30.179688 21.058594 C 30.113281 21.332031 30.128906 21.625 30.21875 21.894531 C 30.210938 21.898438 30.199219 21.898438 30.191406 21.902344 C 29.964844 22.019531 29.726562 22.097656 29.480469 22.136719 C 28.910156 21.941406 28.347656 21.753906 27.804688 21.570312 C 27.671875 21.410156 27.574219 21.234375 27.519531 21.046875 C 27.617188 21.0625 27.710938 21.074219 27.808594 21.082031 C 27.871094 21.085938 27.929688 21.089844 27.988281 21.089844 C 28.160156 21.089844 28.324219 21.066406 28.503906 21.039062 L 28.523438 21.039062 C 28.683594 21.015625 28.800781 20.960938 28.878906 20.878906 C 28.953125 20.796875 28.992188 20.6875 28.984375 20.578125 C 28.980469 20.5625 28.980469 20.546875 28.976562 20.53125 C 29.632812 20.460938 30.273438 20.296875 30.882812 20.050781 C 31.558594 20.175781 32.214844 20.144531 32.878906 19.957031 C 32.972656 19.929688 33.070312 19.898438 33.160156 19.867188 C 33.488281 19.761719 33.800781 19.65625 34.136719 19.75 C 34.550781 19.867188 34.789062 20.105469 35.089844 20.410156 L 35.09375 20.414062 C 35.347656 20.671875 35.75 20.828125 36.101562 20.964844 C 36.195312 21 36.28125 21.035156 36.363281 21.070312 C 36.566406 21.355469 36.867188 21.496094 37.210938 21.636719 C 37.292969 21.671875 37.371094 21.703125 37.449219 21.730469 C 37.691406 21.824219 37.9375 21.921875 38.152344 22.0625 C 38.464844 22.273438 38.648438 22.570312 38.648438 22.859375 C 38.648438 23.128906 38.683594 23.40625 38.757812 23.710938 C 38.785156 23.816406 38.804688 23.921875 38.824219 24.023438 C 38.855469 24.167969 38.882812 24.316406 38.925781 24.464844 C 39.011719 24.765625 39.132812 25.152344 39.320312 25.503906 C 39.453125 25.75 39.492188 25.988281 39.542969 26.261719 C 39.550781 26.300781 39.558594 26.339844 39.566406 26.382812 C 39.703125 27.117188 39.890625 27.851562 40.128906 28.5625 C 40.597656 29.980469 41.257812 31.324219 42.085938 32.550781 C 42.097656 32.570312 42.121094 32.582031 42.144531 32.582031 C 42.15625 32.582031 42.171875 32.578125 42.183594 32.570312 C 42.21875 32.546875 42.226562 32.503906 42.203125 32.46875 "/></g></g></svg>