<svg xmlns="http://www.w3.org/2000/svg" xmlns:xlink="http://www.w3.org/1999/xlink" width="76" zoomAndPan="magnify" viewBox="0 0 56.879997 65.04" height="76" preserveAspectRatio="xMidYMid meet" version="1.2"><defs><clipPath id="7d3aa38b4b"><path d="M 0.355469 0 L 56.40625 0 L 56.40625 56.171875 L 0.355469 56.171875 Z M 0.355469 0 "/></clipPath><clipPath id="7eb98d5c99"><path d="M 19.835938 16.761719 L 36.835938 16.761719 L 36.835938 38.933594 L 19.835938 38.933594 Z M 19.835938 16.761719 "/></clipPath></defs><g id="9104549306"><g clip-rule="nonzero" clip-path="url(#7d3aa38b4b)"><path style=" stroke:none;fill-rule:nonzero;fill:#ffffff;fill-opacity:1;" d="M 0.355469 0 L 56.527344 0 L 56.527344 56.171875 L 0.355469 56.171875 Z M 0.355469 0 "/><path style=" stroke:none;fill-rule:nonzero;fill:#ffffff;fill-opacity:1;" d="M 0.355469 0 L 56.527344 0 L 56.527344 56.171875 L 0.355469 56.171875 Z M 0.355469 0 "/></g><g clip-rule="nonzero" clip-path="url(#7eb98d5c99)"><path style=" stroke:none;fill-rule:nonzero;fill:#0a4732;fill-opacity:1;" d="M 36.59375 36.863281 L 33.96875 22.816406 C 33.96875 22.8125 33.96875 22.808594 33.964844 22.800781 C 33.964844 22.796875 33.964844 22.796875 33.960938 22.792969 C 33.957031 22.789062 33.957031 22.78125 33.949219 22.777344 C 33.949219 22.777344 33.949219 22.769531 33.949219 22.769531 C 33.945312 22.761719 33.941406 22.757812 33.9375 22.753906 C 33.9375 22.753906 33.933594 22.753906 33.933594 22.75 C 33.929688 22.746094 33.925781 22.742188 33.917969 22.734375 L 33.914062 22.730469 C 33.910156 22.726562 33.90625 22.722656 33.898438 22.722656 L 33.894531 22.722656 C 33.890625 22.71875 33.878906 22.71875 33.875 22.71875 L 33.871094 22.71875 C 33.867188 22.71875 33.859375 22.71875 33.851562 22.71875 L 31.179688 22.71875 L 31.046875 19.496094 C 30.980469 17.964844 29.78125 16.765625 28.3125 16.765625 C 27.652344 16.765625 27.015625 17.011719 26.527344 17.457031 C 26.023438 17.914062 25.703125 18.523438 25.609375 19.195312 L 25.101562 22.71875 L 22.839844 22.71875 C 22.78125 22.71875 22.726562 22.757812 22.714844 22.820312 L 19.851562 37.195312 C 19.835938 37.261719 19.878906 37.328125 19.945312 37.339844 C 19.949219 37.339844 19.953125 37.339844 19.957031 37.339844 L 32.707031 38.929688 L 32.71875 38.929688 C 32.726562 38.929688 32.734375 38.929688 32.746094 38.925781 L 32.753906 38.925781 C 32.761719 38.925781 32.765625 38.917969 32.777344 38.914062 L 32.78125 38.914062 L 36.527344 36.996094 C 36.574219 36.972656 36.601562 36.914062 36.59375 36.863281 Z M 25.855469 19.226562 C 26.042969 17.941406 27.074219 17.007812 28.3125 17.007812 C 29.648438 17.007812 30.738281 18.109375 30.792969 19.503906 L 30.929688 22.714844 L 25.351562 22.714844 Z M 22.941406 22.960938 L 25.066406 22.960938 L 24.765625 25.054688 C 24.628906 25.09375 24.535156 25.222656 24.535156 25.367188 C 24.527344 25.542969 24.65625 25.6875 24.828125 25.695312 C 25 25.707031 25.148438 25.578125 25.15625 25.40625 C 25.15625 25.390625 25.15625 25.382812 25.15625 25.367188 C 25.15625 25.257812 25.101562 25.15625 25.011719 25.09375 L 25.316406 22.960938 L 30.933594 22.960938 L 31.019531 25.078125 C 30.914062 25.132812 30.847656 25.246094 30.847656 25.367188 C 30.839844 25.542969 30.976562 25.683594 31.144531 25.691406 C 31.316406 25.703125 31.460938 25.5625 31.46875 25.394531 C 31.46875 25.386719 31.46875 25.378906 31.46875 25.367188 C 31.46875 25.234375 31.390625 25.117188 31.269531 25.066406 L 31.179688 22.960938 L 33.703125 22.960938 L 32.921875 34.109375 L 32.609375 38.664062 L 20.121094 37.109375 Z M 32.859375 38.589844 L 33.214844 33.515625 L 33.898438 23.816406 L 36.328125 36.820312 Z M 32.859375 38.589844 "/></g></g></svg>